<?xml version="1.0" encoding="UTF-8" standalone="no"?>
<!DOCTYPE svg PUBLIC "-//W3C//DTD SVG 1.1//EN"
 "http://www.w3.org/Graphics/SVG/1.1/DTD/svg11.dtd">
<!-- Generated by graphviz version 8.1.0 (20230707.0739)
 -->
<!-- Title: src/utility/src/mathUtility.cpp Pages: 1 -->
<svg width="184pt" height="196pt"
 viewBox="0.00 0.00 183.62 196.00" xmlns="http://www.w3.org/2000/svg" xmlns:xlink="http://www.w3.org/1999/xlink">
<g id="graph0" class="graph" transform="scale(1 1) rotate(0) translate(4 192)">
<title>src/utility/src/mathUtility.cpp</title>
<!-- Node1 -->
<g id="Node000001" class="node">
<title>Node1</title>
<g id="a_Node000001"><a xlink:title="Provides functions for math. utilities.">
<polygon fill="#999999" stroke="#666666" points="140.88,-188 0.38,-188 0.38,-168 140.88,-168 140.88,-188"/>
<text text-anchor="middle" x="70.62" y="-174.5" font-family="Helvetica,sans-Serif" font-size="10.00">src/utility/src/mathUtility.cpp</text>
</a>
</g>
</g>
<!-- Node2 -->
<g id="Node000002" class="node">
<title>Node2</title>
<g id="a_Node000002"><a xlink:title=" ">
<polygon fill="#e0e0e0" stroke="#999999" points="45.25,-132 0,-132 0,-112 45.25,-112 45.25,-132"/>
<text text-anchor="middle" x="22.62" y="-118.5" font-family="Helvetica,sans-Serif" font-size="10.00">cstring</text>
</a>
</g>
</g>
<!-- Node1&#45;&gt;Node2 -->
<g id="edge1_Node000001_Node000002" class="edge">
<title>Node1&#45;&gt;Node2</title>
<g id="a_edge1_Node000001_Node000002"><a xlink:title=" ">
<path fill="none" stroke="#63b8ff" d="M62.26,-167.59C55.59,-160.08 46.05,-149.35 38.01,-140.3"/>
<polygon fill="#63b8ff" stroke="#63b8ff" points="41.15,-138.45 31.89,-133.3 35.92,-143.1 41.15,-138.45"/>
</a>
</g>
</g>
<!-- Node3 -->
<g id="Node000003" class="node">
<title>Node3</title>
<g id="a_Node000003"><a xlink:href="math_utility_8h.html" target="_top" xlink:title="Provides functions for math. utilities.">
<polygon fill="white" stroke="#666666" points="175.62,-132 63.63,-132 63.63,-112 175.62,-112 175.62,-132"/>
<text text-anchor="middle" x="119.62" y="-118.5" font-family="Helvetica,sans-Serif" font-size="10.00">../header/mathUtility.h</text>
</a>
</g>
</g>
<!-- Node1&#45;&gt;Node3 -->
<g id="edge2_Node000001_Node000003" class="edge">
<title>Node1&#45;&gt;Node3</title>
<g id="a_edge2_Node000001_Node000003"><a xlink:title=" ">
<path fill="none" stroke="#63b8ff" d="M79.16,-167.59C85.98,-160.08 95.71,-149.35 103.92,-140.3"/>
<polygon fill="#63b8ff" stroke="#63b8ff" points="106.06,-143.06 110.19,-133.3 100.88,-138.35 106.06,-143.06"/>
</a>
</g>
</g>
<!-- Node4 -->
<g id="Node000004" class="node">
<title>Node4</title>
<g id="a_Node000004"><a xlink:href="common_types_8h.html" target="_top" xlink:title="Provides cross&#45;platform type definitions.">
<polygon fill="white" stroke="#666666" points="163.62,-76 75.62,-76 75.62,-56 163.62,-56 163.62,-76"/>
<text text-anchor="middle" x="119.62" y="-62.5" font-family="Helvetica,sans-Serif" font-size="10.00">commonTypes.h</text>
</a>
</g>
</g>
<!-- Node3&#45;&gt;Node4 -->
<g id="edge3_Node000003_Node000004" class="edge">
<title>Node3&#45;&gt;Node4</title>
<g id="a_edge3_Node000003_Node000004"><a xlink:title=" ">
<path fill="none" stroke="#63b8ff" d="M119.62,-111.59C119.62,-104.86 119.62,-95.53 119.62,-87.15"/>
<polygon fill="#63b8ff" stroke="#63b8ff" points="123.13,-87.3 119.62,-77.3 116.13,-87.3 123.13,-87.3"/>
</a>
</g>
</g>
<!-- Node5 -->
<g id="Node000005" class="node">
<title>Node5</title>
<g id="a_Node000005"><a xlink:title=" ">
<polygon fill="#e0e0e0" stroke="#999999" points="149,-20 90.25,-20 90.25,0 149,0 149,-20"/>
<text text-anchor="middle" x="119.62" y="-6.5" font-family="Helvetica,sans-Serif" font-size="10.00">stdexcept</text>
</a>
</g>
</g>
<!-- Node4&#45;&gt;Node5 -->
<g id="edge4_Node000004_Node000005" class="edge">
<title>Node4&#45;&gt;Node5</title>
<g id="a_edge4_Node000004_Node000005"><a xlink:title=" ">
<path fill="none" stroke="#63b8ff" d="M119.62,-55.59C119.62,-48.86 119.62,-39.53 119.62,-31.15"/>
<polygon fill="#63b8ff" stroke="#63b8ff" points="123.13,-31.3 119.62,-21.3 116.13,-31.3 123.13,-31.3"/>
</a>
</g>
</g>
</g>
</svg>
